<?xml version="1.0" encoding="utf-8"?>
<!-- Generator: Adobe Illustrator 25.2.3, SVG Export Plug-In . SVG Version: 6.00 Build 0)  -->
<svg version="1.1" id="Layer_1" xmlns="http://www.w3.org/2000/svg" xmlns:xlink="http://www.w3.org/1999/xlink" x="0px" y="0px"
	 viewBox="0 0 38.9 38.9" style="enable-background:new 0 0 38.9 38.9;" xml:space="preserve">
<path d="M28.3,1.4H10.5c-5,0-9.1,4.1-9.1,9.1v17.8c0,5,4.1,9.1,9.1,9.1h6.1V24.6h-4.5v-5.1h4.5v-3.9c0-4.5,2.7-6.9,6.7-6.9
	c1.9,0,4,0.3,4,0.3v4.4h-2.2c-2.2,0-2.9,1.4-2.9,2.8v3.3h4.9l-0.8,5.1h-4.2v12.9l0,0h6.1c5,0,9.1-4.1,9.1-9.1V10.5
	C37.5,5.5,33.4,1.4,28.3,1.4z"/>
</svg>
