<?xml version="1.0" encoding="utf-8"?>
<!-- Generator: Adobe Illustrator 24.3.0, SVG Export Plug-In . SVG Version: 6.00 Build 0)  -->
<svg version="1.1" id="Layer_1" xmlns="http://www.w3.org/2000/svg" xmlns:xlink="http://www.w3.org/1999/xlink" x="0px" y="0px"
	 viewBox="0 0 801 319" style="enable-background:new 0 0 801 319;" xml:space="preserve">
<style type="text/css">
	.st0{fill:none;}
	.st1{fill:#F6CE6F;}
	.st2{fill:#FDFAED;}
	.st3{fill:#425EA8;}
	.st4{fill:#FFFFFF;}
</style>
<circle class="st0" cx="15.2" cy="119.2" r="9.2"/>
<path class="st0" d="M752.3,168.5c-0.5-0.1-1.1,0-1.5,0.2l-2.8,14.2c-2.2,11.4,0.1,24.4,3.3,29.2c1.2,1.9,2.2,2.6,3.9,2.9
	c2.5,0.5,4.6-1.5,5.5-5.8c2.1-10.5-0.6-31.1-5.8-38.8C754.3,169.5,753.4,168.7,752.3,168.5z"/>
<path class="st0" d="M82,55.3c-16.8,0-30.5,13.6-30.6,30.4c0,6.6,2.1,13,6.1,18.3c6.2-17.7,15.4-34.1,27.2-48.6
	C83.9,55.3,82.9,55.3,82,55.3z"/>
<path class="st0" d="M47.4,160.6c-1.8-2.6-4.1-3.9-8.1-3.1s-6.8,3.1-6,7.5c0.8,4,3.1,5.6,11.7,6.9c1.3,0.2,2.5,0.4,3.7,0.7
	c-0.3-3.5-0.4-7.1-0.5-10.7L47.4,160.6z"/>
<circle class="st0" cx="719.5" cy="21.5" r="15"/>
<circle class="st0" cx="790.5" cy="124.5" r="4.5"/>
<circle class="st1" cx="221.2" cy="224" r="9.2"/>
<polygon class="st1" points="367.1,243.2 380.4,243.2 373.8,225.1 "/>
<circle class="st1" cx="300.5" cy="75.5" r="5.5"/>
<path class="st1" d="M335.4,185.4c1.6,1.5,2.7,2,4.4,2c2.6-0.1,4.2-2.4,4.1-6.8c-0.2-10.7-7.3-30.2-14-36.6c-0.7-0.9-1.8-1.4-3-1.4
	c-0.5,0-1,0.2-1.5,0.5l0.3,14.5C326.1,169.1,331.2,181.4,335.4,185.4z"/>
<path class="st1" d="M116.5,111.8c6.9,0,12.5-5.5,12.6-12.4c0-6.2-4.5-11.5-10.6-12.4c-0.3,8.4-3.4,16.4-8.9,22.7
	C111.6,111,114,111.8,116.5,111.8z"/>
<circle class="st1" cx="104.5" cy="251.5" r="11.5"/>
<path class="st1" d="M450.8,157.3c-2.4,0-3.6,1.4-3.6,5c-0.1,6.8,4.4,12.9,8.4,13c0.8,0.1,1.6-0.2,2.2-0.8l0.2-8.7
	c0.1-2.3-0.8-4.5-2.4-6.2C454.3,158.4,452.6,157.5,450.8,157.3z"/>
<path class="st1" d="M528,67.8c0-1.3,0.1-2.6,0.2-3.9c-1.6-0.4-3.1-0.6-4.8-0.6c-11,0-20,9-20,20c0,11,9,20,20,20
	c7.3,0,13.9-3.9,17.5-10.3C532.8,87.2,528,77.8,528,67.8z"/>
<circle class="st1" cx="169" cy="262" r="23"/>
<path class="st1" d="M549.5,83.3c0,2.4-0.3,4.8-1,7.2c12.5,5.8,27.4,0.4,33.2-12.2c5.8-12.5,0.4-27.4-12.2-33.2
	c-12.5-5.8-27.4-0.4-33.2,12.2c-0.4,0.9-0.8,1.9-1.1,2.8C544,64.5,549.5,73.5,549.5,83.3z"/>
<path class="st1" d="M104,99.3c0,2.1,0.5,4.1,1.5,5.9c4.2-5,6.6-11.2,7-17.7C107.4,89.2,104,93.9,104,99.3z"/>
<circle class="st1" cx="671.2" cy="99.2" r="9.2"/>
<circle class="st1" cx="352.5" cy="70.5" r="15"/>
<path class="st1" d="M543.1,87.1c1.6-8.1-2-16.4-9.1-20.8c0,0.5,0,1,0,1.5C534,75.2,537.4,82.3,543.1,87.1z"/>
<path class="st1" d="M578.2,136.6c-2.5-0.2-4.4,2-4.8,6.8c-0.8,11.4,4.4,30.4,10.5,37.5c0.6,0.9,1.7,1.6,2.8,1.7
	c0.5,0,1.1-0.1,1.5-0.4l1-14.5c0.8-10.8-3.2-24.3-6.9-28.6C581.4,137.7,579.8,136.8,578.2,136.6z"/>
<path class="st1" d="M623.1,252.2c0.4,0,0.8,0.1,1.2,0.1c7.2,0,13.5-5.1,14.9-12.2C632.2,241.2,626.2,245.8,623.1,252.2z"/>
<path class="st1" d="M624.2,258.3c-1,0-2-0.1-3-0.2c-0.2,1.2-0.3,2.3-0.3,3.5c0,12,9.7,21.8,21.7,21.8c12,0,21.8-9.7,21.8-21.7
	c0-11-8.3-20.3-19.2-21.6C643.8,250.4,634.8,258.2,624.2,258.3z"/>
<path class="st1" d="M639.2,234c-1.7-8.3-9.7-13.6-17.9-12c-8.3,1.7-13.6,9.7-12,17.9c0.9,4.5,3.8,8.4,8,10.6
	C621.1,241.6,629.5,235.3,639.2,234z"/>
<path class="st1" d="M53,169.3l-4.8-7.5c0.1,3.6,0.2,7.2,0.5,10.7c2.1,0.4,4.2,1.1,6.2,1.9c-0.1-1.4-0.2-2.9-0.3-4.3
	C53.9,170.3,53.2,169.9,53,169.3z"/>
<path class="st1" d="M112.2,81.3c-1.7-11.4-9.7-20.9-20.7-24.5c-2.2-0.7-4.4-1.2-6.7-1.4C72.9,69.9,63.7,86.3,57.5,104
	c1.4,1.8,2.9,3.5,4.7,5c11.1,9.6,27.5,9.8,38.9,0.6c-5.7-8.5-3.4-20,5.1-25.6C108,82.8,110,81.9,112.2,81.3L112.2,81.3z"/>
<path class="st1" d="M726.9,205.4c-3.2,1.6-6.4,3.4-9.4,5.4c-0.7,0.5-1,0.5-1.5,0.5c-1.2-0.2-3.3-1.6-3.2-2.2
	c2-5.8,3.6-11.8,4.8-17.8l9.9-50.1c0.2-1.2,0-1.4-1.1-1.8l-3.9-1.5c-0.7-0.3-0.9-0.6-0.5-2.5s0.6-2,1.4-2.1c4.2-0.8,8.4-1.8,12.5-3
	c1.9-0.6,3.8-1.2,5.8-1.8c-5.6-30-19.7-57.8-40.7-80C673.3,19.2,635.5,1.9,595.5,0.1C594.3,0,586.4,0,585.9,0
	c-29.5,2.9-47.8,6.7-65.5,10.4c-27.7,5.8-53.8,11.3-119.5,11.3c-61,0-88.9-5.5-118.4-11.3C262,6.3,240.7,2.1,207.4,0
	c-0.3,0-6.6,0-10.3,0.1c-40,0.8-77.4,17.6-105.4,47.3c-0.8,0.9-1.6,1.7-2.4,2.6c15.1,3.2,26.7,15.5,28.8,30.8
	c10.2,0.9,17.7,9.8,16.9,20c-0.9,10.2-9.8,17.7-20,16.9c-3.6-0.3-7-1.6-9.8-3.8c-14.9,12.3-36.7,10.9-49.9-3.2
	c-4,13.4-6.4,27.2-7,41.2c1.4-0.1,2.7-0.2,4.1-0.3c0.6-0.1,1.3,0,1.9,0.1c0.8,0.2,1,0.8,1.3,2.4l2.8,14.3c0.2,1,0,1.2-2.3,1.7
	c-0.6,0.1-1.1,0.2-1.7,0.2c0.1,1.4,0.2,2.9,0.3,4.3c7.4,3.1,10.8,8.2,12.1,14.9c1.6,6.9-0.4,14.2-5.2,19.4c-1.5,1.6-3.1,3-4.9,4.2
	c20.6,61.7,75.8,106,140.4,106l3.4,0.1h0.1c33.1-1.8,55.5-5.3,77.2-8.8c30.9-4.9,60.1-9.6,118-9.6c54,0,106.7,7.2,145.2,12.5
	c23.6,3.2,42.3,5.8,54.1,5.8h0.2c39.9-0.1,77.3-16.7,105.5-46.8c15.9-17,27.9-37.3,35.1-59.4c-1.8-1.1-3.5-2.2-5.2-3.5
	C729.4,208,728.1,206.7,726.9,205.4z M104.5,269c-4,0-7.8-1.3-10.9-3.8c-1.8-1.4-3.3-3.2-4.4-5.2c-4.7-8.4-1.6-19.1,6.8-23.8
	c8.4-4.7,19.1-1.6,23.8,6.8c4.7,8.4,1.6,19.1-6.8,23.8C110.4,268.2,107.5,269,104.5,269L104.5,269z M135.9,186.2
	c-2.5,9.6-12.9,19.7-27.9,21.7c-18,2.4-32.8-8.4-35.3-27.3c-2.6-19.4,11.5-34.5,32.9-37.4c15.4-2.1,25,4.9,26.1,12.9
	c0.6,4.7-2.5,8.8-8,9.6s-9.9-2.1-14.3-8.3c-5.6-7.9-7.5-9.1-10.1-8.7s-4.1,2.4-3.5,7c1.4,10.5,8.7,23.9,17,30.2
	c4.1,3.1,6.7,3.9,10.6,3.4c3.5-0.5,5.9-2.1,8.6-5.1C132.9,183.2,136.2,184.9,135.9,186.2z M169,291c-16,0-29-13-29-29s13-29,29-29
	s29,13,29,29l0,0C198,278,185,291,169,291z M189.6,164.1c-2.2,0.2-4.1-0.4-6.9-1.9c-3.1-1.8-5.6-2.7-7.2-2.5c-0.6,0-1.1,0.2-1.6,0.5
	l2.9,31.3c0.1,1.2,0.4,1.4,1.6,1.5l7.9,0.1c0.7,0,1,0.4,1.2,2.6s0,2.6-0.7,2.6c-2.8,0.3-10.8,0.1-23.3,1.3
	c-8.9,0.8-16.8,2.4-19.6,2.6c-0.7,0.1-1-0.1-1.2-2.5s0-2.6,0.7-2.8l4-1.2c1.2-0.4,1.4-0.5,1.3-1.7l-2.9-32.1
	c-0.1-1.2-0.4-1.3-1.6-1.5l-4.2-0.4c-0.7,0-1-0.3-1.2-2.2s0.1-2.1,0.8-2.4c9.6-4.8,18.5-11.6,27.6-19.4c0.3-0.3,0.6-0.4,0.9-0.4
	c0.9-0.1,3.2,0.7,3.3,1.5c0.2,2,0.6,11.8,1.3,19.7c2.6-12.1,8.6-21.7,16-22.4s11.1,4.5,11.7,11.2
	C201.5,157.3,195.3,163.6,189.6,164.1z M671.2,84c8.4,0,15.2,6.8,15.2,15.2s-6.8,15.2-15.2,15.2S656,107.7,656,99.2
	C656,90.8,662.8,84,671.2,84z M352.5,49.5c11.6,0,21,9.4,21,21s-9.4,21-21,21s-21-9.4-21-21S340.9,49.5,352.5,49.5z M300.5,64
	c6.4,0,11.5,5.1,11.5,11.5S306.9,87,300.5,87S289,81.9,289,75.5C289,69.2,294.2,64,300.5,64z M221.2,239.3
	c-8.4,0-15.2-6.8-15.2-15.2c0-8.4,6.8-15.2,15.3-15.2c8.4,0,15.2,6.8,15.2,15.2C236.5,232.4,229.7,239.3,221.2,239.3z M257.3,192.9
	c-1.4-4.2-2.5-8.6-3.2-13c-2.8,7.5-10.1,15.6-21,16.2c-12.8,0.7-21.2-7-21.9-20.2l-1.9-34.2c-0.1-1.2-0.3-1.4-1.6-1.6l-4.2-0.8
	c-0.7-0.1-1-0.4-1.1-2.5s0.2-2.8,0.9-2.9c10.7-0.9,31.9-2.3,32.7-2.3c1,0.1,1.8,0.8,1.9,1.7c0.1,2.1-0.5,9.1,0.4,24l0.4,6.3
	c0.6,11.3,3.5,15.2,11.7,14.7c0.9,0,1.8-0.2,2.7-0.5l-2.2-38.6c-0.1-1.2-0.3-1.4-1.6-1.6l-4.2-0.7c-0.7-0.1-1-0.4-1.1-2.5
	s0.2-2.8,0.9-2.9c10.7-0.8,31.9-2.3,32.7-2.3c1,0.1,1.8,0.8,1.9,1.7c0.1,2.1-0.5,9.1,0.4,24l1.3,24c0.1,1.2,0.3,1.5,1.5,1.6l4.2,0.7
	l0,0c0.7,0.1,1,0.4,1.1,2.5s-0.1,2.3-0.8,2.5c-7.2,1.9-16.8,4.7-25.8,7.9C260.7,194.6,257.8,194.1,257.3,192.9L257.3,192.9z
	 M274.8,251.3c5.7,0,9.6-2.8,11.5-7.1h3.9c-2.4,6.3-8,10.1-15.5,10.1c-9.3,0-16.4-7-16.4-17.1s7.1-17.2,16.4-17.2
	c7.5,0,13.1,3.8,15.5,10.2h-3.9c-1.8-4.4-5.8-7.2-11.5-7.2c-7.3,0-13,5.4-13,14.2S267.5,251.3,274.8,251.3z M302.1,191.3
	c-0.6,0.6-0.8,0.8-1.3,0.8c-1.2,0-3.6-0.9-3.6-1.5c0.7-6.1,1-12.3,0.8-18.4l-1.2-51.1c0-1.2-0.3-1.3-1.5-1.6l-4.2-0.6
	c-0.7-0.1-1-0.3-1-2.3s0.2-2.1,0.9-2.3c9.9-4.1,20.6-10.6,30.2-17.5c0.3-0.2,0.6-0.4,1-0.4c0.9,0,3.2,0.9,3.2,1.8
	c0,2.1-0.7,10.4-0.4,25.4l0.4,16.2c4.1-8.5,11.1-12.2,18.9-12.4c12.7-0.3,25.6,9.7,26.1,29.9c0.5,21.2-14,33.8-34.1,34.2
	c-10.5,0.2-19.7-2.7-26.2-7.3C307.3,186.3,304.6,188.7,302.1,191.3L302.1,191.3z M319.6,254h-15.4v-33.6h3.4v30.8h12L319.6,254z
	 M348.6,223.2h-14.1v12.5h12.7v2.8h-12.7v12.7h14.2v2.8h-17.5v-33.6h17.5L348.6,223.2z M384.3,254l-2.9-8h-15.3l-2.9,8h-3.5
	l12.2-33.1h3.8l12.2,33.1H384.3z M380.1,160.4c-2.2,0-3.7-0.6-3.6-3.4c0-6.5,0.8-13,4.2-13c5.4,0,8.9,0.6,18.1,0.6
	c7.4,0,13.2-0.9,17-0.9c2.2,0,3.5,0.6,3.5,3.4c0,7.9-0.8,13-4.2,13c-5.4,0-8.8-0.8-18-0.8C389.6,159.2,383.8,160.3,380.1,160.4
	L380.1,160.4z M426.9,254h-3.4L405,225.7V254h-3.4v-33.6h3.4l18.6,28.2v-28.2h3.4V254z M446.3,254H443v-33.6h3.4V254z M487.7,254
	h-3.4l-18.6-28.2V254h-3.4v-33.6h3.4l18.6,28.2v-28.2h3.4V254z M493,181.8l-0.5,0.5c-7.5,7.2-12.8,10.1-18.8,10
	c-7.2-0.2-12.2-5.1-15-15.8c-4.1,9.7-11.7,15.2-20.6,15c-9.4-0.2-15.7-7.9-15.5-17.4c0.2-7.5,2.6-11.7,9-14.9
	c5.8-2.9,15-5.4,26.6-7.7l0.1-3.9c0.2-8.8-2.4-14.2-7-14.3c-1.2,0-1.7,0.3-2,1.9l-1,5.8c-1.4,8.8-6.6,12.8-13.5,12.6
	c-3.8-0.1-7.1-2.5-7-7c0.2-7.8,15.5-19.4,34.2-19c16.6,0.4,24.2,7.1,24,19l-0.5,22.4c-0.2,9.8,1.7,10,5.1,7.9
	c0.4-0.2,0.5-0.4,0.7-0.4c1.1,0,2.9,2.8,2.8,3.5S493.7,181.1,493,181.8L493,181.8z M534.1,238.6c-0.5,8.9-7.2,15.7-16.3,15.7
	c-9.4,0-16.6-7.1-16.6-17.1s7.2-17.2,16.6-17.2c7.2,0,12.9,3.8,15.3,10.2h-3.9c-1.9-4.5-6.4-7.3-11.3-7.1c-7.4,0-13.2,5.4-13.2,14.1
	s5.7,14.1,13.2,14.1c7,0,12.2-4.8,12.8-12.4h-14.1v-2.7h17.7L534.1,238.6z M534.8,163.4c-5.4-0.2-8.8-1.1-18-1.5
	c-7.3-0.3-13.2,0.5-16.9,0.4c-2.2-0.1-3.6-0.8-3.5-3.6c0.3-6.5,1.3-13,4.7-12.9c5.4,0.2,8.9,1,18,1.4c7.4,0.3,13.2-0.4,17-0.2
	c2.2,0.1,3.5,0.8,3.4,3.6C539.2,158.4,538.2,163.5,534.8,163.4L534.8,163.4z M523.5,109.3c-14.4,0-26-11.6-26-26s11.6-26,26-26
	c2.1,0,4.1,0.2,6.1,0.7c5.4-16.2,23-25,39.2-19.6c16.2,5.4,25,23,19.6,39.2s-23,25-39.2,19.6c-1-0.3-2.1-0.7-3.1-1.2
	C541.6,104.2,532.9,109.3,523.5,109.3z M594.4,198.4c-1,0.2-3.9-0.8-4.1-2c-0.9-4-1.4-8-1.6-12.1c-4.8,9.1-12.1,13-20.7,12.3
	c-12.7-0.9-24.4-14.2-23-34.8c1.5-21.2,15.5-30.3,35.6-28.9c3.7,0.2,7.3,0.9,10.8,2.1l1.3-18c0.1-1.2-0.1-1.5-1.3-1.8l-4.1-1.3
	c-0.7-0.2-0.9-0.6-0.8-2.6s0.4-2.3,1.2-2.4c9.2-1,21.9-3,30.5-4.7c0.5-0.1,1-0.1,1.5-0.1c0.8,0.1,3.1,1.2,3,2
	c-0.1,2.1-1.7,10.3-2.8,25.2l-3.9,54.3c-0.1,1.2,0.1,1.5,1.3,1.8l4.1,1.3c0.7,0.2,0.9,0.6,0.8,2.6s-0.4,2.3-1.2,2.4
	C613.6,194.7,603.7,196.3,594.4,198.4z M642.8,289.3c-15.3,0-27.7-12.4-27.8-27.8c0-1.7,0.2-3.5,0.5-5.2
	c-10.7-4.8-15.4-17.4-10.6-28.1c4.8-10.7,17.4-15.4,28.1-10.6c6.6,3,11.2,9.1,12.3,16.2c15.3,1.4,26.5,14.9,25.1,30.2
	C669,278.3,657,289.2,642.8,289.3z M701.5,197.1l4,1.5c0.7,0.2,0.9,0.6,0.7,2.7s-0.5,2.3-1.3,2.3c-7.4,0.6-17.4,1.8-26.8,3.3
	c-1,0.1-3.8-0.9-4-2.2c-0.7-4.4-1-8.9-0.9-13.4c-4,6.9-12.7,13.6-23.5,12.3c-12.7-1.5-19.6-10.5-18.1-23.6l4-34
	c0.2-1.2-0.1-1.5-1.2-1.9l-4-1.5c-0.7-0.2-0.9-0.6-0.7-2.7s0.7-2.7,1.4-2.6c10.7,1,31.8,3.3,32.7,3.4c0.9,0.2,1.6,1,1.6,2
	c-0.2,2.1-2,8.9-3.8,23.8l-0.8,6.3c-1.3,11.3,0.9,15.6,9,16.5c0.9,0.1,1.8,0.1,2.7,0l4.5-38.4c0.1-1.2-0.1-1.5-1.2-1.9l-4-1.4
	c-0.7-0.2-0.9-0.6-0.7-2.7s0.7-2.7,1.4-2.7c10.7,1,31.8,3.3,32.7,3.4c0.9,0.2,1.6,1,1.6,2c-0.2,2.1-2,8.8-3.8,23.8l-2.8,23.9
	C700.1,196.4,700.3,196.7,701.5,197.1z"/>
<path class="st2" d="M274.8,223c5.7,0,9.6,2.8,11.5,7.2h3.9c-2.4-6.4-8-10.2-15.5-10.2c-9.3,0-16.4,7.1-16.4,17.1
	s7.1,17.1,16.4,17.1c7.5,0,13.1-3.8,15.5-10.1h-3.9c-1.9,4.4-5.8,7.1-11.5,7.1c-7.3,0-13-5.4-13-14.2S267.5,223,274.8,223z"/>
<polygon class="st2" points="307.5,220.4 304.1,220.4 304.1,254 319.6,254 319.6,251.2 307.5,251.2 "/>
<polygon class="st2" points="331.1,254 348.6,254 348.6,251.2 334.4,251.2 334.4,238.5 347.2,238.5 347.2,235.7 334.4,235.7 
	334.4,223.1 348.6,223.1 348.6,220.4 331.1,220.4 "/>
<path class="st2" d="M371.9,220.8L359.6,254h3.5l2.9-8h15.3l2.9,8h3.5l-12.2-33.1L371.9,220.8z M367.1,243.2l6.6-18.1l6.6,18.1
	H367.1z"/>
<polygon class="st2" points="423.6,248.6 405,220.4 401.6,220.4 401.6,254 405,254 405,225.7 423.6,254 426.9,254 426.9,220.4 
	423.6,220.4 "/>
<rect x="443" y="220.4" class="st2" width="3.4" height="33.6"/>
<polygon class="st2" points="484.3,248.6 465.7,220.4 462.4,220.4 462.4,254 465.7,254 465.7,225.7 484.3,254 487.6,254 
	487.6,220.4 484.3,220.4 "/>
<path class="st2" d="M516.5,238.9h14.1c-0.5,7.6-5.7,12.4-12.8,12.4c-7.4,0-13.2-5.4-13.2-14.1s5.7-14.1,13.2-14.1
	c4.9-0.2,9.4,2.6,11.3,7.1h3.9c-2.4-6.4-8.1-10.2-15.3-10.2c-9.4,0-16.6,7.1-16.6,17.1s7.2,17.1,16.6,17.1c9.2,0,15.8-6.8,16.3-15.7
	v-2.5h-17.7V238.9z"/>
<path class="st3" d="M61.7,208.7c4.8-5.2,6.8-12.4,5.2-19.4c-1.3-6.7-4.7-11.8-12.1-14.9c-2-0.8-4.1-1.5-6.2-1.9
	c-1.2-0.3-2.4-0.5-3.7-0.7c-8.6-1.3-10.9-3-11.7-6.9c-0.9-4.4,1.9-6.7,6-7.5s6.3,0.5,8.1,3.1l0.8,1.2l4.8,7.5
	c0.3,0.6,0.9,0.9,1.5,0.8c0.6,0,1.1-0.1,1.7-0.2c2.3-0.4,2.5-0.7,2.3-1.7L55.7,154c-0.3-1.6-0.5-2.2-1.3-2.4
	c-0.6-0.1-1.3-0.2-1.9-0.1c-1.4,0.1-2.8,0.2-4.1,0.3c-3.1,0.2-6.3,0.7-9.4,1.2c-19.5,3.8-28.3,15.5-26,27.3
	c2,10.3,6.9,16.3,22.4,17.7c9,0.8,11.8,3.3,12.7,7.6s-1.7,7.7-7,8.7c-3.6,0.7-6.4,0.1-9.2-2.9c-3.3-4-6.4-8.3-9.1-12.8
	c-0.5-0.9-1-1.1-3.2-0.6s-2.5,0.7-2.4,1.7l0,0c0.5,5.6,1.2,12.6,2.1,17c0.5,2.4,0.8,2.6,3.3,2.8c6.3,0.8,12.7,0.5,18.9-0.8
	c5.5-1,10.7-3,15.3-5.9C58.6,211.7,60.2,210.3,61.7,208.7z"/>
<path class="st3" d="M131.9,184.2c-2.7,3-5,4.6-8.6,5.1c-3.9,0.5-6.4-0.2-10.6-3.4c-8.2-6.3-15.6-19.7-17-30.2c-0.6-4.6,1-6.6,3.5-7
	s4.6,0.9,10.1,8.7c4.4,6.2,8.8,9,14.3,8.3s8.6-4.8,8-9.6c-1.1-8-10.7-14.9-26.1-12.9c-21.4,2.9-35.5,18-32.9,37.4
	c2.5,18.9,17.2,29.7,35.3,27.3c15-2,25.3-12.1,27.9-21.7C136.2,184.9,132.9,183.2,131.9,184.2z"/>
<path class="st3" d="M188.7,134.6c-7.4,0.7-13.4,10.3-16,22.4c-0.7-7.9-1.1-17.8-1.3-19.7c-0.1-0.9-2.5-1.6-3.3-1.5
	c-0.4,0-0.7,0.2-0.9,0.4c-9.1,7.8-18,14.6-27.6,19.4c-0.7,0.3-0.9,0.6-0.8,2.4s0.4,2.2,1.2,2.2l4.2,0.4c1.2,0.1,1.5,0.2,1.6,1.5
	l2.9,32.1c0.1,1.2-0.1,1.4-1.3,1.7l-4,1.2c-0.7,0.2-0.9,0.5-0.7,2.8s0.5,2.5,1.2,2.5c2.8-0.2,10.7-1.8,19.6-2.6
	c12.5-1.1,20.5-1,23.3-1.3c0.7-0.1,0.9-0.5,0.7-2.6s-0.5-2.5-1.2-2.6l-7.9-0.1c-1.2,0-1.5-0.2-1.6-1.5l-2.9-31.3
	c0.5-0.3,1-0.5,1.6-0.5c1.6-0.1,4.1,0.7,7.2,2.5c2.8,1.6,4.7,2.1,6.9,1.9c5.7-0.5,11.9-6.9,10.8-18.4
	C199.8,139.1,196,133.9,188.7,134.6z"/>
<path class="st3" d="M261.7,194.3c9-3.2,18.6-6,25.8-7.9c0.7-0.2,1-0.4,0.8-2.5s-0.4-2.4-1.1-2.5l0,0l-4.2-0.7
	c-1.2-0.2-1.5-0.4-1.5-1.6l-1.3-24c-0.8-15-0.2-22-0.4-24c-0.2-1-1-1.7-1.9-1.7c-0.9,0.1-22,1.5-32.7,2.3c-0.7,0-1,0.8-0.9,2.9
	s0.4,2.4,1.1,2.5l4.2,0.7c1.2,0.2,1.5,0.4,1.6,1.6l2.2,38.6c-0.9,0.3-1.8,0.5-2.7,0.5c-8.2,0.5-11.1-3.4-11.7-14.7l-0.4-6.3
	c-0.8-15-0.2-22-0.4-24c-0.2-1-1-1.7-1.9-1.7c-0.9,0-22,1.5-32.7,2.3c-0.7,0-1,0.8-0.9,2.9s0.4,2.4,1.1,2.5l4.2,0.8
	c1.2,0.2,1.5,0.4,1.6,1.6l1.9,34.2c0.7,13.1,9.1,20.9,21.9,20.2c10.8-0.6,18.2-8.7,21-16.2c0.7,4.4,1.8,8.8,3.2,13
	C257.8,194.1,260.7,194.6,261.7,194.3z"/>
<path class="st3" d="M336.3,191.4c20.1-0.5,34.6-13,34.1-34.2c-0.5-20.2-13.4-30.2-26.1-29.9c-7.8,0.2-14.8,3.9-18.9,12.4l-0.4-16.2
	c-0.3-15,0.5-23.3,0.4-25.4c0-0.9-2.4-1.8-3.2-1.8c-0.4,0-0.7,0.1-1,0.4c-9.6,6.9-20.3,13.4-30.2,17.5c-0.7,0.3-1,0.5-0.9,2.3
	s0.3,2.2,1,2.3l4.2,0.6c1.2,0.2,1.5,0.3,1.5,1.6l1.2,51.1c0.2,6.2-0.1,12.3-0.8,18.4c0,0.6,2.4,1.5,3.6,1.5c0.5,0,0.7-0.1,1.3-0.8
	c2.5-2.6,5.2-5,8-7.2C316.6,188.6,325.8,191.6,336.3,191.4z M327,142.5c1.2,0,2.3,0.5,3,1.4c6.7,6.4,13.8,25.9,14,36.6
	c0.1,4.4-1.6,6.8-4.1,6.8c-1.7,0-2.8-0.4-4.4-2c-4.2-4-9.3-16.3-9.5-27.9l-0.3-14.5C326,142.7,326.5,142.5,327,142.5z"/>
<path class="st3" d="M419.2,147c0-2.8-1.3-3.4-3.5-3.4c-3.8,0-9.5,1-17,0.9c-9.1,0-12.7-0.6-18.1-0.6c-3.4,0-4.2,6.6-4.2,13
	c0,2.8,1.5,3.4,3.6,3.4c3.7,0,9.5-1.1,16.8-1c9.3,0,12.7,0.8,18,0.8C418.4,160,419.1,154.9,419.2,147z"/>
<path class="st3" d="M491.4,176.5c-0.2,0-0.4,0.1-0.7,0.4c-3.3,2.1-5.3,1.8-5.1-7.9l0.5-22.4c0.3-11.8-7.4-18.6-24-19
	c-18.7-0.4-34,11.2-34.2,19c-0.1,4.5,3.3,6.9,7,7c6.8,0.1,12-3.9,13.5-12.6l1-5.8c0.3-1.6,0.8-1.9,2-1.9c4.6,0.1,7.2,5.5,7,14.3
	l-0.1,3.9c-11.6,2.3-20.9,4.8-26.6,7.7c-6.4,3.3-8.8,7.5-9,14.9c-0.2,9.5,6.1,17.2,15.5,17.4c8.9,0.2,16.5-5.4,20.6-15
	c2.8,10.7,7.8,15.7,15,15.8c6,0.1,11.3-2.8,18.8-10l0.5-0.5c0.8-0.7,1.2-1.2,1.3-1.8S492.5,176.5,491.4,176.5z M457.8,174.6
	c-0.6,0.6-1.4,0.9-2.2,0.8c-4-0.1-8.5-6.2-8.4-13c0.1-3.7,1.2-5.1,3.6-5c1.8,0.2,3.5,1.1,4.7,2.4c1.6,1.6,2.5,3.9,2.4,6.2
	L457.8,174.6z"/>
<path class="st3" d="M536.1,146.9c-3.8-0.2-9.5,0.6-17,0.2c-9.2-0.4-12.7-1.2-18-1.4c-3.4-0.1-4.4,6.4-4.7,12.9
	c-0.1,2.8,1.3,3.5,3.5,3.6c3.7,0.2,9.6-0.7,16.9-0.4c9.3,0.4,12.7,1.3,18,1.5c3.4,0.1,4.4-4.9,4.7-12.9
	C539.7,147.7,538.3,147,536.1,146.9z"/>
<path class="st3" d="M622.2,191.4c0.2-2.1-0.1-2.5-0.8-2.6l-4.1-1.3c-1.2-0.3-1.4-0.6-1.3-1.8l3.9-54.3c1.1-15,2.6-23.2,2.8-25.2
	c0.1-0.9-2.2-2-3-2c-0.5,0-1,0-1.5,0.1c-8.7,1.7-21.3,3.6-30.6,4.7c-0.7,0.1-1,0.3-1.2,2.4s0.1,2.4,0.8,2.6l4.1,1.3
	c1.2,0.3,1.4,0.6,1.3,1.8l-1.3,18c-3.5-1.2-7.1-1.9-10.7-2.1c-20.1-1.4-34.1,7.7-35.6,28.9c-1.5,20.6,10.3,33.9,23,34.8
	c8.6,0.6,15.9-3.3,20.7-12.3c0.2,4.1,0.7,8.1,1.6,12.1c0.3,1.2,3.2,2.2,4.1,2c9.3-2,19.2-3.6,26.6-4.6
	C621.8,193.7,622,193.5,622.2,191.4z M589.3,167.7l-1,14.5c-0.4,0.3-1,0.4-1.5,0.4c-1.1-0.1-2.2-0.7-2.8-1.7
	c-6.1-7-11.3-26-10.5-37.4c0.3-4.7,2.2-6.9,4.8-6.8c1.7,0.2,3.2,1,4.2,2.3C586.1,143.3,590,156.8,589.3,167.7z"/>
<path class="st3" d="M703,171.3c1.8-14.9,3.5-21.7,3.8-23.8c0-1-0.7-1.8-1.6-2c-0.8-0.1-22-2.4-32.7-3.4c-0.7-0.1-1.2,0.6-1.4,2.7
	s0,2.4,0.7,2.7l4,1.4c1.2,0.4,1.4,0.7,1.2,1.9l-4.6,38.4c-0.9,0.1-1.8,0.1-2.7,0c-8.1-1-10.3-5.3-9-16.5l0.8-6.3
	c1.8-14.9,3.5-21.7,3.8-23.8c0-1-0.7-1.8-1.6-2c-0.8-0.1-22-2.4-32.7-3.4c-0.7-0.1-1.2,0.6-1.4,2.6s0,2.5,0.7,2.7l4,1.5
	c1.2,0.4,1.4,0.7,1.2,1.9l-4,34c-1.5,13.1,5.4,22.1,18.1,23.6c10.8,1.3,19.4-5.5,23.5-12.3c-0.1,4.5,0.2,8.9,0.9,13.4
	c0.2,1.2,3,2.3,4,2.2c9.4-1.6,19.4-2.7,26.8-3.3c0.8,0,1-0.2,1.3-2.3s0-2.5-0.7-2.7l-4-1.5c-1.2-0.4-1.4-0.7-1.3-1.9L703,171.3z"/>
<path class="st3" d="M772.5,157.3c-7.7-1.5-15.3,0.6-21.1,8l3.1-15.9c2.9-14.7,5.5-22.7,5.8-24.7c0.2-0.8-1.9-2.2-2.8-2.4
	c-0.3-0.1-0.7,0-1,0.2c-4.9,2.1-10,4.1-15.1,5.8c-1.9,0.6-3.8,1.3-5.8,1.8c-4.1,1.2-8.3,2.2-12.5,3c-0.8,0.1-1,0.3-1.4,2.1
	s-0.2,2.2,0.5,2.5l3.9,1.5c1.2,0.5,1.4,0.6,1.1,1.8l-9.8,50.2c-1.2,6.1-2.8,12-4.8,17.9c-0.1,0.6,2,2,3.2,2.2c0.5,0.1,0.7,0,1.5-0.5
	c3-2,6.1-3.8,9.4-5.4c1.2,1.3,2.5,2.6,4,3.7c1.6,1.3,3.4,2.5,5.2,3.5c4.6,2.6,9.6,4.5,14.9,5.5c19.8,3.9,36.6-5.2,40.7-26.1
	C795.4,172.2,785,159.8,772.5,157.3z M760.7,209.3c-0.8,4.3-3,6.2-5.5,5.8c-1.7-0.3-2.7-1-3.9-2.9c-3.3-4.9-5.6-17.9-3.3-29.2
	l2.8-14.2c0.5-0.2,1-0.3,1.5-0.2c1.1,0.3,2.1,1,2.6,2C760,178.2,762.7,198.8,760.7,209.3L760.7,209.3z"/>
<path class="st4" d="M719.5,42.5c11.6,0,21-9.4,21-21s-9.4-21-21-21s-21,9.4-21,21S707.9,42.5,719.5,42.5z M719.5,6.5
	c8.3,0,15,6.7,15,15s-6.7,15-15,15s-15-6.7-15-15S711.2,6.5,719.5,6.5L719.5,6.5z"/>
<path class="st4" d="M30.5,119.2c0-8.4-6.8-15.2-15.2-15.2S0,110.8,0,119.2s6.8,15.2,15.2,15.2C23.7,134.5,30.5,127.7,30.5,119.2z
	 M6,119.2c0-5.1,4.1-9.2,9.2-9.2s9.2,4.1,9.2,9.2s-4.1,9.2-9.2,9.2C10.1,128.5,6,124.4,6,119.2z"/>
<path class="st4" d="M112.5,87.5c-0.4,6.5-2.8,12.7-7,17.7c1,1.8,2.4,3.3,4.1,4.5c5.5-6.3,8.7-14.3,8.9-22.7c-0.7-0.1-1.3-0.2-2-0.2
	C115.1,86.8,113.8,87,112.5,87.5z"/>
<path class="st4" d="M60.3,115.1c13.5,10,32,9.5,44.9-1.2c-1.6-1.2-3-2.7-4.1-4.4c-11.4,9.2-27.8,9-38.9-0.6c-1.7-1.5-3.3-3.2-4.7-5
	c-10.1-13.5-7.2-32.6,6.3-42.7c5.3-3.9,11.6-6,18.2-6c0.9,0,1.9,0,2.8,0.1c2.3,0.2,4.5,0.7,6.7,1.4c11,3.6,19,13.1,20.7,24.5
	c1.4-0.3,2.9-0.5,4.3-0.5c0.6,0,1.1,0,1.7,0.1c-2.7-20-21.1-33.9-41.1-31.2c-20,2.7-33.9,21.1-31.2,41.1
	C47.2,100.4,52.4,109.2,60.3,115.1L60.3,115.1z"/>
<path class="st4" d="M639.2,240.1c0.2-1,0.3-2,0.3-3.1c0-1-0.1-2-0.3-3c-9.7,1.3-18.1,7.6-21.9,16.5c1.8,0.9,3.8,1.5,5.8,1.6
	C626.2,245.8,632.2,241.2,639.2,240.1z"/>
<path class="st4" d="M645.2,233.9c0.2,1,0.3,2.1,0.3,3.1c0,1-0.1,1.9-0.2,2.9c11.9,1.4,20.5,12.2,19.1,24.1
	c-1.4,11.9-12.2,20.5-24.1,19.1c-11-1.3-19.2-10.6-19.2-21.6c0-1.2,0.1-2.3,0.3-3.5c-2-0.3-3.9-0.8-5.8-1.7
	c-0.3,1.7-0.5,3.4-0.5,5.2c0,15.3,12.4,27.8,27.7,27.8s27.8-12.4,27.8-27.7C670.5,247.2,659.5,235.2,645.2,233.9L645.2,233.9z"/>
<path class="st4" d="M624.2,258.3c11.7-0.1,21.2-9.6,21.2-21.3c0-1-0.1-2.1-0.3-3.1c-1.7-11.6-12.5-19.6-24.1-17.9
	c-11.6,1.7-19.6,12.5-17.9,24.1c1.4,9.3,8.7,16.6,18,17.9C622.2,258.2,623.2,258.3,624.2,258.3z M609,237c0-8.4,6.8-15.2,15.3-15.2
	c7.3,0,13.5,5.1,14.9,12.2c0.2,1,0.3,2,0.3,3c0,8.4-6.8,15.2-15.2,15.2c-0.4,0-0.8,0-1.2-0.1c-2-0.1-4-0.7-5.8-1.6
	C612.2,247.9,609,242.7,609,237z"/>
<path class="st4" d="M221.2,208.8c-8.4,0-15.2,6.8-15.2,15.2c0,8.4,6.8,15.2,15.3,15.2s15.2-6.8,15.2-15.2c0,0,0,0,0,0
	C236.5,215.6,229.7,208.8,221.2,208.8z M221.2,233.3c-5.1,0-9.2-4.1-9.2-9.3c0-5.1,4.1-9.2,9.2-9.2c5.1,0,9.2,4.1,9.2,9.2
	C230.5,229.1,226.4,233.3,221.2,233.3z"/>
<path class="st4" d="M169,233c-16,0-29,13-29,29s13,29,29,29s29-13,29-29l0,0C198,246,185,233,169,233z M169,285
	c-12.7,0-23-10.3-23-23s10.3-23,23-23s23,10.3,23,23S181.7,285,169,285L169,285z"/>
<path class="st4" d="M112.2,81.3c-9.9,2.4-16,12.4-13.6,22.3s12.4,16,22.3,13.6c9.9-2.4,16-12.4,13.6-22.3
	c-1.9-7.7-8.4-13.4-16.3-14.1c-0.6-0.1-1.1-0.1-1.7-0.1C115,80.8,113.6,81,112.2,81.3z M118.5,86.9c6.8,1.1,11.5,7.5,10.4,14.3
	c-1.1,6.8-7.5,11.5-14.3,10.4c-6.8-1.1-11.5-7.5-10.4-14.3c0.7-4.6,3.9-8.4,8.3-9.9c1.3-0.5,2.7-0.7,4.1-0.7
	C117.2,86.8,117.8,86.8,118.5,86.9L118.5,86.9z"/>
<path class="st4" d="M541,93c-5.4,9.7-17.6,13.1-27.2,7.7c-9.7-5.4-13.1-17.6-7.7-27.2c3.5-6.3,10.2-10.3,17.5-10.3
	c1.6,0,3.2,0.2,4.8,0.6c0.3-2,0.7-4,1.3-5.9c-14-3.4-28,5.2-31.4,19.2c-3.4,14,5.2,28,19.2,31.4c11.3,2.7,23.1-2.4,28.8-12.6
	C544.3,95.2,542.6,94.2,541,93z"/>
<path class="st4" d="M543.5,83.3c0,1.3-0.1,2.5-0.4,3.8c1.6,1.4,3.4,2.5,5.4,3.4c3.4-12-2.1-24.8-13.3-30.4c-0.7,2-1.1,4.1-1.2,6.2
	C539.9,70,543.5,76.4,543.5,83.3z"/>
<path class="st4" d="M104.5,234c-9.7,0-17.5,7.8-17.5,17.5c0,3,0.8,5.9,2.2,8.5c1.1,2,2.6,3.8,4.4,5.2c7.6,6,18.6,4.7,24.6-2.8
	s4.7-18.6-2.8-24.6C112.3,235.3,108.4,234,104.5,234z M104.5,263c-6.4,0-11.5-5.1-11.5-11.5s5.1-11.5,11.5-11.5s11.5,5.1,11.5,11.5
	C116,257.8,110.8,263,104.5,263z"/>
<path class="st4" d="M352.5,91.5c11.6,0,21-9.4,21-21s-9.4-21-21-21s-21,9.4-21,21S340.9,91.5,352.5,91.5z M352.5,55.5
	c8.3,0,15,6.7,15,15s-6.7,15-15,15s-15-6.7-15-15S344.2,55.5,352.5,55.5L352.5,55.5z"/>
<path class="st4" d="M528,67.8c0,10,4.9,19.4,13,25.2c1.6,1.2,3.4,2.2,5.2,3c15.6,7.1,34,0.2,41.1-15.4s0.2-34-15.4-41.1
	c-15.6-7.1-34-0.2-41.1,15.4c-1.3,2.8-2.1,5.9-2.5,8.9C528.1,65.2,528,66.5,528,67.8z M534,66.3c0.1-2.1,0.5-4.2,1.2-6.2
	c4.2-13.1,18.3-20.4,31.5-16.1c13.1,4.2,20.4,18.3,16.1,31.5c-4.2,13.1-18.3,20.4-31.5,16.1c-1-0.3-1.9-0.7-2.8-1.1
	c-8.8-4.1-14.5-12.9-14.5-22.7C534,67.3,534,66.8,534,66.3L534,66.3z"/>
<path class="st4" d="M671.2,114.5c8.4,0,15.2-6.8,15.2-15.2S679.7,84,671.2,84S656,90.8,656,99.2l0,0
	C656,107.7,662.8,114.5,671.2,114.5z M671.2,90c5.1,0,9.2,4.1,9.2,9.2s-4.1,9.2-9.2,9.2s-9.2-4.1-9.2-9.2
	C662,94.1,666.1,90,671.2,90z"/>
<path class="st4" d="M790.5,114c-5.8,0-10.5,4.7-10.5,10.5s4.7,10.5,10.5,10.5s10.5-4.7,10.5-10.5C801,118.7,796.3,114,790.5,114z
	 M790.5,129c-2.5,0-4.5-2-4.5-4.5s2-4.5,4.5-4.5s4.5,2,4.5,4.5C795,127,793,129,790.5,129z"/>
<path class="st4" d="M300.5,87c6.4,0,11.5-5.1,11.5-11.5S306.9,64,300.5,64S289,69.1,289,75.5l0,0C289,81.8,294.2,87,300.5,87z
	 M300.5,70c3,0,5.5,2.5,5.5,5.5s-2.5,5.5-5.5,5.5s-5.5-2.5-5.5-5.5C295,72.5,297.5,70,300.5,70z"/>
</svg>
